<?xml version="1.0" encoding="utf-8"?>
<!-- Generator: Adobe Illustrator 15.0.2, SVG Export Plug-In . SVG Version: 6.00 Build 0)  -->
<!DOCTYPE svg PUBLIC "-//W3C//DTD SVG 1.1//EN" "http://www.w3.org/Graphics/SVG/1.1/DTD/svg11.dtd">
<svg version="1.1" id="Layer_1" xmlns="http://www.w3.org/2000/svg" xmlns:xlink="http://www.w3.org/1999/xlink" x="0px" y="0px"
	 width="210px" height="150px" viewBox="15 10 210 150" enable-background="new 15 10 210 150" xml:space="preserve">
<g>
	<path fill="#E5333A" stroke="#000000" stroke-width="0.8696" stroke-miterlimit="10" stroke-opacity="0.1" d="M110.033,34.955
		c-7.867-6.823-12.219-12.609-12.219-18.696h-5.363v73.409c-2.608-2.351-7.4-3.528-11.082-3.528c-5.8,0-10.247,2.162-14.088,6.485
		c-3.843,4.322-5.576,9.74-5.576,16.256c0,6.421,2.043,11.83,5.943,16.232c3.898,4.403,7.99,6.604,13.674,6.604
		c4.233,0,8.521-1.43,11.129-4.291v4.481h4.348V43.555l1.037-0.062c35.332,4.135,21.494,44.587,21.494,44.587
		C137.278,57.594,115.922,40.064,110.033,34.955z M92.451,123.136c-2.608,2.669-6.327,4.004-10.038,4.004
		c-4.785,0-8.398-1.764-11.588-5.292s-4.598-7.944-4.598-13.253c0-5.213,1.586-9.494,4.573-12.849
		c2.986-3.351,6.084-5.028,10.694-5.028c3.942,0,8.347,1.365,10.956,4.1V123.136L92.451,123.136z"/>
	<path fill="#FFFFFF" stroke="#000000" stroke-width="0.8696" stroke-miterlimit="10" stroke-opacity="0.1" d="M105.55,127.086
		c-2.09-3.095-3.135-7.479-3.135-13.154V86.366h3.167v27.469c0,4.129,0.753,7.369,2.262,9.722c1.507,2.354,3.467,3.53,5.88,3.53
		c2.067,0,3.828-0.709,5.282-2.128c1.454-1.418,2.913-3.867,4.378-7.352V86.366h3.165v44.493h-3.165v-7.352h-0.13
		c-1.378,2.967-2.794,5.079-4.248,6.336c-1.454,1.256-3.301,1.886-5.541,1.886C110.275,131.729,107.639,130.182,105.55,127.086z
		 M144.022,131.729l12.798-45.363h-3.096l-10.748,37.48l-11.204-37.48h-3.219l13.562,45.363H144.022z M159.328,125.055
		c-2.801-4.45-4.201-10.107-4.201-16.975c0-6.512,1.292-11.903,3.877-16.177c2.586-4.272,5.838-6.409,9.758-6.409
		c3.682,0,6.795,1.927,9.336,5.779c2.542,3.854,3.813,9.084,3.813,15.693h-23.424c-0.063,0.774-0.097,1.548-0.097,2.322
		c0,4.965,1.185,9.172,3.555,12.624c2.369,3.449,5.169,5.173,8.398,5.173c3.77,0,7.452-2.206,11.049-6.625v5.368
		c-3.403,3.934-7.215,5.9-11.437,5.9C165.67,131.729,162.129,129.504,159.328,125.055z M158.908,103.147h19.254
		c-1.119-8.674-4.252-13.011-9.4-13.011c-2.435,0-4.54,1.137-6.316,3.41C160.669,95.819,159.491,99.019,158.908,103.147z
		 M25.237,128.339c-0.204-0.591-0.308-1.825-0.308-3.702v-11.669h3.678v-1.707H24.93v-6.508h-0.441l-0.955,1.836v4.672H20v1.707
		h3.533v14.121c0,1.31,0.29,2.335,0.87,3.072c0.58,0.741,1.302,1.109,2.166,1.109c0.884,0,1.787-0.333,2.708-1.002v-2.006
		c-0.911,0.641-1.71,0.96-2.395,0.96C25.99,129.224,25.44,128.93,25.237,128.339z M36.479,110.877c-1.787,0-3.225,1.266-4.318,3.797
		h-0.057v-13.59h-1.396v29.803h1.396v-13.759c1.159-2.801,2.589-4.203,4.29-4.203c2.375,0,3.562,2.263,3.562,6.785v11.178h1.396
		v-12.01c0-2.489-0.442-4.444-1.325-5.868C39.144,111.589,37.96,110.877,36.479,110.877z M44.396,120.349
		c-0.029,0.341-0.043,0.683-0.043,1.025c0,2.191,0.522,4.047,1.567,5.567c1.046,1.521,2.281,2.282,3.705,2.282
		c1.663,0,3.287-0.973,4.874-2.923v2.369c-1.501,1.736-3.184,2.603-5.045,2.603c-1.891,0-3.454-0.981-4.689-2.943
		c-1.235-1.964-1.853-4.46-1.853-7.489c0-2.872,0.57-5.251,1.711-7.135c1.141-1.885,2.574-2.827,4.304-2.827
		c1.625,0,2.997,0.85,4.118,2.55c1.121,1.699,1.682,4.007,1.682,6.923H44.396V120.349z M44.581,118.664h8.494
		c-0.494-3.825-1.877-5.739-4.148-5.739c-1.073,0-2.002,0.501-2.786,1.503C45.357,115.432,44.837,116.843,44.581,118.664z
		 M217.17,128.176c1.874-2.371,2.83-5.28,2.83-8.73c0-2.579-0.495-4.915-1.529-7.011c-1.034-2.097-3.236-4.118-6.602-6.065
		c-3.368-1.949-5.424-3.558-6.171-4.827c-0.746-1.269-1.12-2.662-1.12-4.172c0-2.123,0.614-3.906,1.843-5.352
		c1.227-1.447,2.677-2.171,4.465-2.171c2.412,0,4.607,1.517,8.085,4.546v-5.127c-3.478-2.515-5.457-3.772-7.89-3.772
		c-2.673,0-4.909,1.186-6.772,3.556c-1.864,2.37-2.782,5.247-2.782,8.633c0,2.386,0.51,4.555,1.512,6.504
		c1,1.951,3.189,3.929,6.559,5.929c3.37,2.001,5.438,3.655,6.204,4.96c0.768,1.305,1.15,2.731,1.15,4.277
		c0,2.255-0.586,4.109-1.76,5.559c-1.174,1.45-2.757,2.175-4.585,2.175c-2.487,0-5.547-0.898-8.156-3.128v4.806
		c2.609,2.142,5.037,2.964,7.734,2.964C212.941,131.729,215.296,130.544,217.17,128.176z M194.52,127.296
		c-2.018-0.169-3.374-1.354-3.374-2.691V89.735h7.826v-4.348h-7.826V71.475h-0.18l-3.038,4.258l-0.261-0.265v0.146v9.772h-8.695
		v4.348h8.695v32.211v2.659c0,1.625,1.095,3.219,1.945,4.304c1.312,1.677,2.665,2.516,4.625,2.516c2.36,0,4.733-1.296,5.603-3.12
		v-4.572C198.972,125.349,196.188,127.435,194.52,127.296z M87.51,143.357c-1.187,0-2.207,0.691-3.035,2.053
		c-0.599-1.361-1.566-2.053-2.883-2.053c-1.057,0-1.947,0.493-2.654,1.467v-1.278h-1.335v10.007h1.335v-6.887
		c0.703-1.267,1.532-1.91,2.462-1.91c0.644,0,1.142,0.256,1.525,0.78c0.393,0.539,0.591,1.326,0.591,2.344v5.671h1.345v-6.696
		c0.407-0.742,0.803-1.285,1.179-1.616c0.367-0.325,0.789-0.483,1.286-0.483c0.665,0,1.166,0.264,1.532,0.807
		c0.379,0.561,0.569,1.348,0.569,2.339v5.65h1.336v-6.101c0-1.216-0.298-2.21-0.886-2.952
		C89.278,143.741,88.482,143.357,87.51,143.357z M102.417,144.854c0.884,0.988,1.332,2.235,1.332,3.705
		c0,1.465-0.449,2.705-1.332,3.689c-0.889,0.989-2.016,1.491-3.348,1.491c-1.333,0-2.462-0.501-3.357-1.491
		c-0.891-0.984-1.342-2.226-1.342-3.689c0-1.471,0.452-2.717,1.342-3.705c0.896-0.993,2.024-1.496,3.357-1.496
		C100.401,143.357,101.528,143.861,102.417,144.854z M102.355,148.559c0-1.08-0.32-1.996-0.954-2.722
		c-0.635-0.729-1.398-1.082-2.333-1.082c-0.948,0-1.718,0.351-2.353,1.072c-0.633,0.718-0.954,1.637-0.954,2.731
		c0,1.088,0.321,2.002,0.953,2.717c0.635,0.717,1.405,1.066,2.354,1.066c0.941,0,1.706-0.348,2.338-1.066
		C102.037,150.561,102.355,149.646,102.355,148.559z M114.045,138.562h1.346v14.988h-1.346v-0.562
		c-0.75,0.498-1.561,0.751-2.413,0.751c-1.308,0-2.425-0.508-3.319-1.513c-0.89-0.997-1.341-2.237-1.341-3.688
		c0-1.473,0.444-2.714,1.321-3.693c0.884-0.988,2.008-1.488,3.339-1.488c0.756,0,1.566,0.216,2.413,0.643V138.562z M114.045,145.56
		c-0.78-0.534-1.579-0.805-2.374-0.805c-0.968,0-1.742,0.339-2.368,1.036c-0.623,0.695-0.938,1.599-0.938,2.684
		c0,1.107,0.338,2.041,1.005,2.771c0.67,0.737,1.485,1.096,2.493,1.096c0.744,0,1.478-0.263,2.184-0.778L114.045,145.56
		L114.045,145.56z M126.105,144.671c0.787,0.865,1.186,2.051,1.186,3.522v0.197h-6.978c-0.007,0.102-0.011,0.204-0.011,0.305
		c0,1.016,0.337,1.888,1.001,2.59c0.671,0.711,1.44,1.057,2.353,1.057c1.065,0,2.124-0.464,3.15-1.381l0.329-0.294v1.692
		l-0.069,0.059c-1.043,0.877-2.229,1.321-3.525,1.321c-1.327,0-2.441-0.508-3.307-1.51c-0.86-0.993-1.297-2.271-1.297-3.796
		c0-1.446,0.402-2.664,1.197-3.62c0.804-0.965,1.83-1.456,3.051-1.456C124.333,143.357,125.317,143.799,126.105,144.671z
		 M125.74,147.171c-0.347-1.626-1.184-2.416-2.555-2.416c-0.677,0-1.248,0.224-1.74,0.684c-0.449,0.417-0.765,0.998-0.943,1.732
		H125.74z M135.038,143.357c-0.981,0-1.943,0.747-2.931,2.276v-2.088h-1.336v10.007h1.336v-6.186
		c0.953-1.733,1.839-2.611,2.634-2.611c0.27,0,0.771,0.181,1.635,1.039l0.184,0.182l0.751-1.317l-0.108-0.105
		C136.382,143.748,135.674,143.357,135.038,143.357z M143.821,143.357c-1.1,0-2.022,0.492-2.75,1.464v-1.275h-1.334v10.007h1.334
		v-6.885c0.721-1.287,1.601-1.912,2.693-1.912c1.48,0,2.201,1.021,2.201,3.125v5.672h1.335v-6.058c0-1.275-0.314-2.293-0.939-3.023
		C145.729,143.731,144.875,143.357,143.821,143.357z M162.956,152.342c-0.985,0-1.749-0.328-2.331-1.002
		c-0.584-0.674-0.879-1.602-0.879-2.76c0-1.138,0.295-2.073,0.881-2.777c0.584-0.704,1.321-1.047,2.253-1.047
		c0.65,0,1.396,0.198,2.208,0.587l0.283,0.135v-1.591l-0.131-0.047c-0.894-0.319-1.704-0.482-2.408-0.482
		c-1.304,0-2.39,0.508-3.229,1.508c-0.83,0.989-1.25,2.278-1.25,3.828c0,1.493,0.418,2.718,1.245,3.643
		c0.834,0.931,1.938,1.402,3.282,1.402c0.775,0,1.625-0.169,2.525-0.503l0.128-0.048v-1.506l-0.278,0.124
		C164.453,152.162,163.68,152.342,162.956,152.342z M176.562,144.854c0.884,0.988,1.332,2.235,1.332,3.705
		c0,1.465-0.448,2.705-1.332,3.689c-0.889,0.989-2.015,1.491-3.348,1.491s-2.462-0.501-3.357-1.491
		c-0.891-0.984-1.342-2.226-1.342-3.689c0-1.471,0.451-2.717,1.342-3.705c0.896-0.993,2.024-1.496,3.357-1.496
		C174.547,143.357,175.675,143.861,176.562,144.854z M176.502,148.559c0-1.08-0.32-1.996-0.955-2.722
		c-0.634-0.729-1.397-1.082-2.332-1.082c-0.948,0-1.718,0.351-2.352,1.072c-0.634,0.718-0.955,1.637-0.955,2.731
		c0,1.088,0.321,2.002,0.953,2.717c0.635,0.717,1.404,1.066,2.354,1.066c0.941,0,1.705-0.348,2.337-1.066
		C176.183,150.561,176.502,149.646,176.502,148.559z M184.397,151.311l-3.194-7.765h-1.383l4.191,10.193h0.836l3.953-10.193h-1.342
		L184.397,151.311z M197.913,144.671c0.786,0.865,1.184,2.051,1.184,3.522v0.197h-6.977c-0.007,0.102-0.01,0.204-0.01,0.305
		c0,1.016,0.336,1.888,1.001,2.59c0.671,0.711,1.44,1.057,2.353,1.057c1.064,0,2.124-0.464,3.15-1.381l0.329-0.294v1.692
		l-0.071,0.059c-1.043,0.877-2.228,1.321-3.524,1.321c-1.328,0-2.44-0.508-3.308-1.51c-0.859-0.993-1.295-2.271-1.295-3.796
		c0-1.446,0.403-2.664,1.197-3.62c0.804-0.965,1.83-1.456,3.051-1.456C196.141,143.357,197.123,143.799,197.913,144.671z
		 M197.547,147.171c-0.348-1.626-1.185-2.416-2.554-2.416c-0.678,0-1.248,0.224-1.742,0.684c-0.448,0.417-0.764,0.998-0.941,1.732
		H197.547z M206.826,143.357c-0.981,0-1.943,0.747-2.932,2.276v-2.088h-1.336v10.007h1.336v-6.186
		c0.954-1.733,1.84-2.611,2.635-2.611c0.269,0,0.771,0.181,1.636,1.039l0.183,0.182l0.75-1.317l-0.108-0.105
		C208.17,143.748,207.461,143.357,206.826,143.357z M214.805,147.882c-1.201-0.505-1.617-0.815-1.757-0.984
		c-0.193-0.24-0.287-0.495-0.287-0.778c0-0.4,0.156-0.73,0.478-1.006c0.785-0.674,2.037-0.559,3.519,0.522l0.313,0.23v-1.604
		l-0.091-0.06c-1.855-1.183-3.503-1.06-4.622-0.024c-0.593,0.549-0.894,1.225-0.894,2.01c0,0.556,0.163,1.066,0.483,1.519
		c0.321,0.457,0.987,0.897,2.031,1.349c1.204,0.521,1.626,0.84,1.767,1.016c0.2,0.246,0.297,0.51,0.297,0.8
		c0,0.432-0.149,0.777-0.456,1.053c-0.313,0.282-0.71,0.42-1.208,0.42c-0.768,0-1.669-0.287-2.677-0.853l-0.294-0.164v1.444
		l0.088,0.059c0.906,0.604,1.833,0.911,2.759,0.911c0.866,0,1.606-0.275,2.196-0.818c0.598-0.55,0.9-1.233,0.9-2.032
		c0-0.596-0.167-1.141-0.495-1.624C216.521,148.774,215.853,148.323,214.805,147.882z"/>
</g>
</svg>
